<?xml version="1.0" encoding="UTF-8"?>
<!DOCTYPE svg PUBLIC "-//W3C//DTD SVG 1.1//EN" "http://www.w3.org/Graphics/SVG/1.1/DTD/svg11.dtd">
<svg xmlns="http://www.w3.org/2000/svg" version="1.1" width="300px" height="270px" style="shape-rendering:geometricPrecision; text-rendering:geometricPrecision; image-rendering:optimizeQuality; fill-rule:evenodd; clip-rule:evenodd" xmlns:xlink="http://www.w3.org/1999/xlink">
<g><path style="opacity:1" fill="#f6f6f6" d="M -0.5,-0.5 C 99.5,-0.5 199.5,-0.5 299.5,-0.5C 299.5,89.5 299.5,179.5 299.5,269.5C 199.5,269.5 99.5,269.5 -0.5,269.5C -0.5,179.5 -0.5,89.5 -0.5,-0.5 Z"/></g>
<g><path style="opacity:1" fill="#eb5e85" d="M 144.5,16.5 C 143.853,17.2739 143.52,18.2739 143.5,19.5C 147.215,47.4588 145.715,75.1255 139,102.5C 135.717,112.182 132.55,121.849 129.5,131.5C 126.833,131.5 124.167,131.5 121.5,131.5C 121.5,134.167 121.5,136.833 121.5,139.5C 122.5,139.5 123.5,139.5 124.5,139.5C 121.167,146.167 117.833,152.833 114.5,159.5C 113.833,159.5 113.5,159.833 113.5,160.5C 110.218,165.534 106.551,170.368 102.5,175C 103.094,175.464 103.761,175.631 104.5,175.5C 93.6684,177.018 88.3351,172.018 88.5,160.5C 85.8333,160.5 83.1667,160.5 80.5,160.5C 80.0517,171.617 84.7183,179.617 94.5,184.5C 87.3612,193.498 79.1945,201.498 70,208.5C 69.5172,209.448 69.3505,210.448 69.5,211.5C 68.5184,208.038 68.185,204.371 68.5,200.5C 58.7762,198.614 52.2762,192.947 49,183.5C 48.0772,178.521 47.2439,173.521 46.5,168.5C 30.0261,155.247 24.1928,138.247 29,117.5C 35.3331,101.58 46.8331,91.5799 63.5,87.5C 54.6023,62.0115 62.6023,44.1782 87.5,34C 90.8168,33.5017 94.1501,33.335 97.5,33.5C 101.039,16.1373 111.705,7.97063 129.5,9C 135.389,9.94444 140.389,12.4444 144.5,16.5 Z"/></g>
<g><path style="opacity:1" fill="#ec658a" d="M 221.5,29.5 C 219.167,27.8333 217.167,25.8333 215.5,23.5C 216.153,13.6452 220.82,10.8119 229.5,15C 233.772,23.6202 231.106,28.4536 221.5,29.5 Z"/></g>
<g><path style="opacity:1" fill="#ea436e" d="M 144.5,16.5 C 149.577,20.6539 152.577,25.9872 153.5,32.5C 153.667,72.1681 153.5,111.835 153,151.5C 148.676,140.674 140.843,134.007 129.5,131.5C 132.55,121.849 135.717,112.182 139,102.5C 145.715,75.1255 147.215,47.4588 143.5,19.5C 143.52,18.2739 143.853,17.2739 144.5,16.5 Z"/></g>
<g><path style="opacity:1" fill="#83bac6" d="M 215.5,23.5 C 217.167,25.8333 219.167,27.8333 221.5,29.5C 214.702,35.7973 208.035,42.2973 201.5,49C 185.837,49.4999 170.17,49.6666 154.5,49.5C 154.5,46.8333 154.5,44.1667 154.5,41.5C 168.837,41.6666 183.171,41.4999 197.5,41C 203.369,34.9638 209.369,29.1305 215.5,23.5 Z"/></g>
<g><path style="opacity:1" fill="#a6343f" d="M 123.5,30.5 C 134.185,37.7093 136.351,47.0427 130,58.5C 122.657,66.021 114.157,67.521 104.5,63C 102.316,60.9835 100.316,58.8169 98.5,56.5C 99.899,53.9007 101.899,52.4007 104.5,52C 111.487,59.4411 118.321,59.2744 125,51.5C 125.667,48.8333 125.667,46.1667 125,43.5C 123.152,40.9893 121.319,38.4893 119.5,36C 120.65,34.019 121.984,32.1857 123.5,30.5 Z"/></g>
<g><path style="opacity:1" fill="#eb6389" d="M 249.5,57.5 C 247.473,56.1394 245.806,54.4727 244.5,52.5C 244.22,42.9422 248.553,39.7755 257.5,43C 261.926,48.4414 261.259,53.1081 255.5,57C 253.527,57.4955 251.527,57.6621 249.5,57.5 Z"/></g>
<g><path style="opacity:1" fill="#87bdc8" d="M 244.5,52.5 C 245.806,54.4727 247.473,56.1394 249.5,57.5C 244.37,63.1314 239.036,68.6314 233.5,74C 207.169,74.5 180.835,74.6666 154.5,74.5C 154.5,71.5 154.5,68.5 154.5,65.5C 180.169,65.6666 205.835,65.5 231.5,65C 235.702,60.6298 240.036,56.4632 244.5,52.5 Z"/></g>
<g><path style="opacity:1" fill="#a73440" d="M 105.5,74.5 C 118.917,73.4518 128.084,79.1185 133,91.5C 134.977,112.357 125.477,123.024 104.5,123.5C 104.5,120.5 104.5,117.5 104.5,114.5C 119.345,115.157 126.178,108.157 125,93.5C 120.963,85.5625 114.463,81.8958 105.5,82.5C 105.5,79.8333 105.5,77.1667 105.5,74.5 Z"/></g>
<g><path style="opacity:1" fill="#eb6289" d="M 253.5,99.5 C 253.672,98.5084 253.338,97.8417 252.5,97.5C 252.298,95.0504 252.631,92.717 253.5,90.5C 258.212,85.189 263.045,85.189 268,90.5C 269.5,99.6667 265.667,103.5 256.5,102C 255.627,100.955 254.627,100.122 253.5,99.5 Z"/></g>
<g><path style="opacity:1" fill="#7ba5cc" d="M 194.5,98.5 C 194.833,98.5 195.167,98.5 195.5,98.5C 195.5,102.5 195.5,106.5 195.5,110.5C 192.833,111.833 190.167,111.833 187.5,110.5C 189.833,110.5 192.167,110.5 194.5,110.5C 194.5,106.5 194.5,102.5 194.5,98.5 Z"/></g>
<g><path style="opacity:1" fill="#dae6ea" d="M 252.5,97.5 C 253.338,97.8417 253.672,98.5084 253.5,99.5C 239.833,99.5 226.167,99.5 212.5,99.5C 212.5,103.167 212.5,106.833 212.5,110.5C 213.791,110.263 214.791,110.596 215.5,111.5C 214.167,111.5 212.833,111.5 211.5,111.5C 211.5,107.167 211.5,102.833 211.5,98.5C 225.344,98.829 239.01,98.4957 252.5,97.5 Z"/></g>
<g><path style="opacity:1" fill="#f3f5f5" d="M 154.5,98.5 C 159.833,98.5 165.167,98.5 170.5,98.5C 170.5,102.833 170.5,107.167 170.5,111.5C 169.167,111.5 167.833,111.5 166.5,111.5C 166.5,112.5 166.5,113.5 166.5,114.5C 162.5,114.5 158.5,114.5 154.5,114.5C 154.5,109.167 154.5,103.833 154.5,98.5 Z"/></g>
<g><path style="opacity:1" fill="#3673b7" d="M 170.5,98.5 C 173.167,98.5 175.833,98.5 178.5,98.5C 178.5,102.833 178.5,107.167 178.5,111.5C 175.833,111.5 173.167,111.5 170.5,111.5C 170.5,107.167 170.5,102.833 170.5,98.5 Z"/></g>
<g><path style="opacity:1" fill="#f5f6f6" d="M 179.5,98.5 C 181.833,98.5 184.167,98.5 186.5,98.5C 186.5,102.5 186.5,106.5 186.5,110.5C 184.167,110.5 181.833,110.5 179.5,110.5C 179.5,106.5 179.5,102.5 179.5,98.5 Z"/></g>
<g><path style="opacity:1" fill="#306fb6" d="M 194.5,98.5 C 194.5,102.5 194.5,106.5 194.5,110.5C 192.167,110.5 189.833,110.5 187.5,110.5C 187.5,106.5 187.5,102.5 187.5,98.5C 189.833,98.5 192.167,98.5 194.5,98.5 Z"/></g>
<g><path style="opacity:1" fill="#eff2f4" d="M 195.5,98.5 C 198.167,98.5 200.833,98.5 203.5,98.5C 203.5,102.5 203.5,106.5 203.5,110.5C 200.833,110.5 198.167,110.5 195.5,110.5C 195.5,106.5 195.5,102.5 195.5,98.5 Z"/></g>
<g><path style="opacity:1" fill="#3773b7" d="M 203.5,98.5 C 206.167,98.5 208.833,98.5 211.5,98.5C 211.5,102.833 211.5,107.167 211.5,111.5C 208.615,111.806 205.948,111.473 203.5,110.5C 203.5,106.5 203.5,102.5 203.5,98.5 Z"/></g>
<g><path style="opacity:1" fill="#bdd6e0" d="M 178.5,98.5 C 178.833,98.5 179.167,98.5 179.5,98.5C 179.5,102.5 179.5,106.5 179.5,110.5C 181.833,110.5 184.167,110.5 186.5,110.5C 184.052,111.473 181.385,111.806 178.5,111.5C 178.5,107.167 178.5,102.833 178.5,98.5 Z"/></g>
<g><path style="opacity:1" fill="#80b8c5" d="M 154.5,90.5 C 187.5,90.5 220.5,90.5 253.5,90.5C 252.631,92.717 252.298,95.0504 252.5,97.5C 239.01,98.4957 225.344,98.829 211.5,98.5C 208.833,98.5 206.167,98.5 203.5,98.5C 200.833,98.5 198.167,98.5 195.5,98.5C 195.167,98.5 194.833,98.5 194.5,98.5C 192.167,98.5 189.833,98.5 187.5,98.5C 187.5,102.5 187.5,106.5 187.5,110.5C 190.167,111.833 192.833,111.833 195.5,110.5C 198.167,110.5 200.833,110.5 203.5,110.5C 205.948,111.473 208.615,111.806 211.5,111.5C 212.833,111.5 214.167,111.5 215.5,111.5C 215.5,112.5 215.5,113.5 215.5,114.5C 219.702,114.183 223.702,114.517 227.5,115.5C 223.5,115.5 219.5,115.5 215.5,115.5C 215.5,116.5 215.5,117.5 215.5,118.5C 210.167,122.833 204.833,127.167 199.5,131.5C 199.768,129.901 199.434,128.568 198.5,127.5C 193.167,127.5 187.833,127.5 182.5,127.5C 182.5,132.833 182.5,138.167 182.5,143.5C 182.5,143.833 182.5,144.167 182.5,144.5C 177.45,147.692 172.117,150.358 166.5,152.5C 166.5,150.833 166.5,149.167 166.5,147.5C 166.5,144.833 166.5,142.167 166.5,139.5C 166.5,136.833 166.5,134.167 166.5,131.5C 166.5,128.833 166.5,126.167 166.5,123.5C 166.5,120.833 166.5,118.167 166.5,115.5C 162.5,115.5 158.5,115.5 154.5,115.5C 154.5,115.167 154.5,114.833 154.5,114.5C 158.5,114.5 162.5,114.5 166.5,114.5C 166.5,113.5 166.5,112.5 166.5,111.5C 167.833,111.5 169.167,111.5 170.5,111.5C 173.167,111.5 175.833,111.5 178.5,111.5C 181.385,111.806 184.052,111.473 186.5,110.5C 186.5,106.5 186.5,102.5 186.5,98.5C 184.167,98.5 181.833,98.5 179.5,98.5C 179.167,98.5 178.833,98.5 178.5,98.5C 175.833,98.5 173.167,98.5 170.5,98.5C 165.167,98.5 159.833,98.5 154.5,98.5C 154.5,95.8333 154.5,93.1667 154.5,90.5 Z"/></g>
<g><path style="opacity:1" fill="#3773b8" d="M 154.5,115.5 C 158.5,115.5 162.5,115.5 166.5,115.5C 166.5,118.167 166.5,120.833 166.5,123.5C 162.5,123.5 158.5,123.5 154.5,123.5C 154.5,120.833 154.5,118.167 154.5,115.5 Z"/></g>
<g><path style="opacity:1" fill="#3772b7" d="M 227.5,115.5 C 227.5,118.167 227.5,120.833 227.5,123.5C 223.5,123.5 219.5,123.5 215.5,123.5C 215.5,121.833 215.5,120.167 215.5,118.5C 215.5,117.5 215.5,116.5 215.5,115.5C 219.5,115.5 223.5,115.5 227.5,115.5 Z"/></g>
<g><path style="opacity:1" fill="#608c96" d="M 215.5,118.5 C 215.5,120.167 215.5,121.833 215.5,123.5C 215.5,126.167 215.5,128.833 215.5,131.5C 215.5,134.167 215.5,136.833 215.5,139.5C 215.5,142.167 215.5,144.833 215.5,147.5C 219.702,147.183 223.702,147.517 227.5,148.5C 223.5,148.5 219.5,148.5 215.5,148.5C 215.5,150.833 215.5,153.167 215.5,155.5C 219.5,155.5 223.5,155.5 227.5,155.5C 223.702,156.483 219.702,156.817 215.5,156.5C 215.5,157.833 215.5,159.167 215.5,160.5C 214.167,160.5 212.833,160.5 211.5,160.5C 209.052,159.527 206.385,159.194 203.5,159.5C 200.615,159.194 197.948,159.527 195.5,160.5C 195.167,160.5 194.833,160.5 194.5,160.5C 192.167,160.5 189.833,160.5 187.5,160.5C 187.167,160.5 186.833,160.5 186.5,160.5C 183.833,159.167 181.167,159.167 178.5,160.5C 175.833,160.5 173.167,160.5 170.5,160.5C 169.432,159.566 168.099,159.232 166.5,159.5C 166.5,158.5 166.5,157.5 166.5,156.5C 162.5,156.5 158.5,156.5 154.5,156.5C 154.5,156.167 154.5,155.833 154.5,155.5C 158.5,155.5 162.5,155.5 166.5,155.5C 166.5,154.5 166.5,153.5 166.5,152.5C 172.117,150.358 177.45,147.692 182.5,144.5C 188.167,144.5 193.833,144.5 199.5,144.5C 199.5,140.167 199.5,135.833 199.5,131.5C 204.833,127.167 210.167,122.833 215.5,118.5 Z"/></g>
<g><path style="opacity:1" fill="#f2f4f5" d="M 154.5,123.5 C 158.5,123.5 162.5,123.5 166.5,123.5C 166.5,126.167 166.5,128.833 166.5,131.5C 162.5,131.5 158.5,131.5 154.5,131.5C 154.5,128.833 154.5,126.167 154.5,123.5 Z"/></g>
<g><path style="opacity:1" fill="#a6343f" d="M 77.5,123.5 C 97.3777,122.377 106.378,131.711 104.5,151.5C 101.833,151.5 99.1667,151.5 96.5,151.5C 99.0754,137.584 93.4088,131.084 79.5,132C 76.6667,133.5 74.5,135.667 73,138.5C 72.501,142.821 72.3343,147.154 72.5,151.5C 69.8333,151.5 67.1667,151.5 64.5,151.5C 64.3341,146.489 64.5007,141.489 65,136.5C 68.0248,130.977 72.1915,126.644 77.5,123.5 Z"/></g>
<g><path style="opacity:1" fill="#3270b5" d="M 198.5,127.5 C 198.5,129.5 198.5,131.5 198.5,133.5C 193.531,136.478 188.865,139.811 184.5,143.5C 183.833,143.5 183.167,143.5 182.5,143.5C 182.5,138.167 182.5,132.833 182.5,127.5C 187.833,127.5 193.167,127.5 198.5,127.5 Z"/></g>
<g><path style="opacity:1" fill="#b24553" d="M 153.5,32.5 C 154.477,35.2869 154.81,38.2869 154.5,41.5C 154.5,44.1667 154.5,46.8333 154.5,49.5C 154.5,54.8333 154.5,60.1667 154.5,65.5C 154.5,68.5 154.5,71.5 154.5,74.5C 154.5,79.8333 154.5,85.1667 154.5,90.5C 154.5,93.1667 154.5,95.8333 154.5,98.5C 154.5,103.833 154.5,109.167 154.5,114.5C 154.5,114.833 154.5,115.167 154.5,115.5C 154.5,118.167 154.5,120.833 154.5,123.5C 154.5,126.167 154.5,128.833 154.5,131.5C 154.5,134.167 154.5,136.833 154.5,139.5C 154.5,142.167 154.5,144.833 154.5,147.5C 154.5,150.167 154.5,152.833 154.5,155.5C 154.5,155.833 154.5,156.167 154.5,156.5C 154.5,161.833 154.5,167.167 154.5,172.5C 154.5,175.167 154.5,177.833 154.5,180.5C 154.5,185.833 154.5,191.167 154.5,196.5C 154.5,199.167 154.5,201.833 154.5,204.5C 154.5,204.833 154.5,205.167 154.5,205.5C 154.5,210.833 154.5,216.167 154.5,221.5C 154.5,224.167 154.5,226.833 154.5,229.5C 154.167,229.5 153.833,229.5 153.5,229.5C 153.5,209.167 153.5,188.833 153.5,168.5C 150.833,168.5 148.167,168.5 145.5,168.5C 148.466,151.387 141.466,141.72 124.5,139.5C 123.5,139.5 122.5,139.5 121.5,139.5C 121.5,136.833 121.5,134.167 121.5,131.5C 124.167,131.5 126.833,131.5 129.5,131.5C 140.843,134.007 148.676,140.674 153,151.5C 153.5,111.835 153.667,72.1681 153.5,32.5 Z"/></g>
<g><path style="opacity:1" fill="#3371b6" d="M 154.5,131.5 C 158.5,131.5 162.5,131.5 166.5,131.5C 166.5,134.167 166.5,136.833 166.5,139.5C 162.5,139.5 158.5,139.5 154.5,139.5C 154.5,136.833 154.5,134.167 154.5,131.5 Z"/></g>
<g><path style="opacity:1" fill="#3270b6" d="M 215.5,131.5 C 219.5,131.5 223.5,131.5 227.5,131.5C 227.5,134.167 227.5,136.833 227.5,139.5C 223.5,139.5 219.5,139.5 215.5,139.5C 215.5,136.833 215.5,134.167 215.5,131.5 Z"/></g>
<g><path style="opacity:1" fill="#255993" d="M 198.5,133.5 C 198.5,136.833 198.5,140.167 198.5,143.5C 193.833,143.5 189.167,143.5 184.5,143.5C 188.865,139.811 193.531,136.478 198.5,133.5 Z"/></g>
<g><path style="opacity:1" fill="#ea436e" d="M 124.5,139.5 C 141.466,141.72 148.466,151.387 145.5,168.5C 148.167,168.5 150.833,168.5 153.5,168.5C 153.5,188.833 153.5,209.167 153.5,229.5C 150.444,245.05 140.944,253.383 125,254.5C 109.609,252.94 100.442,244.606 97.5,229.5C 83.1424,231.003 73.809,225.003 69.5,211.5C 69.3505,210.448 69.5172,209.448 70,208.5C 79.1945,201.498 87.3612,193.498 94.5,184.5C 112.197,185.468 121.197,177.135 121.5,159.5C 119.167,159.5 116.833,159.5 114.5,159.5C 117.833,152.833 121.167,146.167 124.5,139.5 Z"/></g>
<g><path style="opacity:1" fill="#f1f3f5" d="M 154.5,139.5 C 158.5,139.5 162.5,139.5 166.5,139.5C 166.5,142.167 166.5,144.833 166.5,147.5C 162.5,147.5 158.5,147.5 154.5,147.5C 154.5,144.833 154.5,142.167 154.5,139.5 Z"/></g>
<g><path style="opacity:1" fill="#4c7b97" d="M 198.5,127.5 C 199.434,128.568 199.768,129.901 199.5,131.5C 199.5,135.833 199.5,140.167 199.5,144.5C 193.833,144.5 188.167,144.5 182.5,144.5C 182.5,144.167 182.5,143.833 182.5,143.5C 183.167,143.5 183.833,143.5 184.5,143.5C 189.167,143.5 193.833,143.5 198.5,143.5C 198.5,140.167 198.5,136.833 198.5,133.5C 198.5,131.5 198.5,129.5 198.5,127.5 Z"/></g>
<g><path style="opacity:1" fill="#3873b8" d="M 154.5,147.5 C 158.5,147.5 162.5,147.5 166.5,147.5C 166.5,149.167 166.5,150.833 166.5,152.5C 166.5,153.5 166.5,154.5 166.5,155.5C 162.5,155.5 158.5,155.5 154.5,155.5C 154.5,152.833 154.5,150.167 154.5,147.5 Z"/></g>
<g><path style="opacity:1" fill="#2f6eb5" d="M 227.5,148.5 C 227.5,150.833 227.5,153.167 227.5,155.5C 223.5,155.5 219.5,155.5 215.5,155.5C 215.5,153.167 215.5,150.833 215.5,148.5C 219.5,148.5 223.5,148.5 227.5,148.5 Z"/></g>
<g><path style="opacity:1" fill="#f3f5f5" d="M 154.5,156.5 C 158.5,156.5 162.5,156.5 166.5,156.5C 166.5,157.5 166.5,158.5 166.5,159.5C 168.099,159.232 169.432,159.566 170.5,160.5C 170.5,164.5 170.5,168.5 170.5,172.5C 165.167,172.5 159.833,172.5 154.5,172.5C 154.5,167.167 154.5,161.833 154.5,156.5 Z"/></g>
<g><path style="opacity:1" fill="#a6343f" d="M 114.5,159.5 C 116.833,159.5 119.167,159.5 121.5,159.5C 121.197,177.135 112.197,185.468 94.5,184.5C 84.7183,179.617 80.0517,171.617 80.5,160.5C 83.1667,160.5 85.8333,160.5 88.5,160.5C 88.3351,172.018 93.6684,177.018 104.5,175.5C 109.12,174.308 111.953,171.308 113,166.5C 113.495,164.527 113.662,162.527 113.5,160.5C 113.5,159.833 113.833,159.5 114.5,159.5 Z"/></g>
<g><path style="opacity:1" fill="#3371b7" d="M 170.5,160.5 C 173.167,160.5 175.833,160.5 178.5,160.5C 178.5,164.5 178.5,168.5 178.5,172.5C 175.833,172.5 173.167,172.5 170.5,172.5C 170.5,168.5 170.5,164.5 170.5,160.5 Z"/></g>
<g><path style="opacity:1" fill="#bdcfdb" d="M 186.5,160.5 C 184.167,160.5 181.833,160.5 179.5,160.5C 179.5,164.5 179.5,168.5 179.5,172.5C 179.167,172.5 178.833,172.5 178.5,172.5C 178.5,168.5 178.5,164.5 178.5,160.5C 181.167,159.167 183.833,159.167 186.5,160.5 Z"/></g>
<g><path style="opacity:1" fill="#f6f6f6" d="M 186.5,160.5 C 186.5,164.5 186.5,168.5 186.5,172.5C 184.167,172.5 181.833,172.5 179.5,172.5C 179.5,168.5 179.5,164.5 179.5,160.5C 181.833,160.5 184.167,160.5 186.5,160.5 Z"/></g>
<g><path style="opacity:1" fill="#3672b6" d="M 203.5,159.5 C 206.385,159.194 209.052,159.527 211.5,160.5C 211.5,164.5 211.5,168.5 211.5,172.5C 208.833,172.5 206.167,172.5 203.5,172.5C 203.5,168.167 203.5,163.833 203.5,159.5 Z"/></g>
<g><path style="opacity:1" fill="#e6436b" d="M 113.5,160.5 C 113.662,162.527 113.495,164.527 113,166.5C 111.953,171.308 109.12,174.308 104.5,175.5C 103.761,175.631 103.094,175.464 102.5,175C 106.551,170.368 110.218,165.534 113.5,160.5 Z"/></g>
<g><path style="opacity:1" fill="#eb6389" d="M 253.5,180.5 C 252.612,177.946 252.279,175.279 252.5,172.5C 257.594,167.197 262.76,167.197 268,172.5C 269.663,181.167 266.163,185 257.5,184C 255.676,183.34 254.343,182.173 253.5,180.5 Z"/></g>
<g><path style="opacity:1" fill="#82b9c6" d="M 203.5,159.5 C 203.5,163.833 203.5,168.167 203.5,172.5C 206.167,172.5 208.833,172.5 211.5,172.5C 225.167,172.5 238.833,172.5 252.5,172.5C 252.279,175.279 252.612,177.946 253.5,180.5C 220.5,180.5 187.5,180.5 154.5,180.5C 154.5,177.833 154.5,175.167 154.5,172.5C 159.833,172.5 165.167,172.5 170.5,172.5C 173.167,172.5 175.833,172.5 178.5,172.5C 178.833,172.5 179.167,172.5 179.5,172.5C 181.833,172.5 184.167,172.5 186.5,172.5C 186.5,168.5 186.5,164.5 186.5,160.5C 186.833,160.5 187.167,160.5 187.5,160.5C 187.5,164.5 187.5,168.5 187.5,172.5C 189.833,172.5 192.167,172.5 194.5,172.5C 194.5,168.5 194.5,164.5 194.5,160.5C 194.833,160.5 195.167,160.5 195.5,160.5C 197.948,159.527 200.615,159.194 203.5,159.5 Z"/></g>
<g><path style="opacity:1" fill="#f6f6f6" d="M 195.5,160.5 C 197.833,160.5 200.167,160.5 202.5,160.5C 202.5,164.5 202.5,168.5 202.5,172.5C 200.167,172.5 197.833,172.5 195.5,172.5C 195.5,168.5 195.5,164.5 195.5,160.5 Z"/></g>
<g><path style="opacity:1" fill="#306fb6" d="M 187.5,160.5 C 189.833,160.5 192.167,160.5 194.5,160.5C 194.5,164.5 194.5,168.5 194.5,172.5C 192.167,172.5 189.833,172.5 187.5,172.5C 187.5,168.5 187.5,164.5 187.5,160.5 Z"/></g>
<g><path style="opacity:1" fill="#a6333e" d="M 113.5,188.5 C 124.55,187.936 132.383,192.602 137,202.5C 139.258,220.404 131.424,229.404 113.5,229.5C 113.5,226.833 113.5,224.167 113.5,221.5C 125.086,221.745 130.253,216.079 129,204.5C 125.422,198.909 120.256,196.242 113.5,196.5C 113.5,193.833 113.5,191.167 113.5,188.5 Z"/></g>
<g><path style="opacity:1" fill="#84bbc6" d="M 154.5,196.5 C 184.835,196.333 215.168,196.5 245.5,197C 246.667,197.5 247.5,198.333 248,199.5C 248.5,207.159 248.666,214.826 248.5,222.5C 245.904,221.735 243.237,221.401 240.5,221.5C 240.5,215.833 240.5,210.167 240.5,204.5C 211.833,204.5 183.167,204.5 154.5,204.5C 154.5,201.833 154.5,199.167 154.5,196.5 Z"/></g>
<g><path style="opacity:1" fill="#b5d5dc" d="M 154.5,205.5 C 154.5,205.167 154.5,204.833 154.5,204.5C 183.167,204.5 211.833,204.5 240.5,204.5C 240.5,210.167 240.5,215.833 240.5,221.5C 240.5,222.167 240.167,222.5 239.5,222.5C 239.5,216.833 239.5,211.167 239.5,205.5C 211.167,205.5 182.833,205.5 154.5,205.5 Z"/></g>
<g><path style="opacity:1" fill="#82bac6" d="M 154.5,221.5 C 167.171,221.333 179.838,221.5 192.5,222C 197.002,225.336 201.002,229.169 204.5,233.5C 202.14,234.865 200.473,236.865 199.5,239.5C 196.036,236.538 192.703,233.371 189.5,230C 177.838,229.5 166.171,229.333 154.5,229.5C 154.5,226.833 154.5,224.167 154.5,221.5 Z"/></g>
<g><path style="opacity:1" fill="#eb6389" d="M 240.5,221.5 C 243.237,221.401 245.904,221.735 248.5,222.5C 253.361,226.544 253.695,231.044 249.5,236C 239.898,239.069 235.732,235.569 237,225.5C 238.045,224.627 238.878,223.627 239.5,222.5C 240.167,222.5 240.5,222.167 240.5,221.5 Z"/></g>
<g><path style="opacity:1" fill="#eb6288" d="M 204.5,233.5 C 213.42,233.893 216.586,238.227 214,246.5C 209.042,250.715 204.375,250.381 200,245.5C 199.505,243.527 199.338,241.527 199.5,239.5C 200.473,236.865 202.14,234.865 204.5,233.5 Z"/></g>
</svg>
